HIERARCHY
ROOT Hips
{
  OFFSET 57.8838 95.319 338.509
  CHANNELS 6 Xposition Yposition Zposition Zrotation Xrotation Yrotation
  JOINT LeftUpLeg
  {
    OFFSET 8.64259 1.95398 -2.38835
    CHANNELS 3 Zrotation Xrotation Yrotation
    JOINT LeftLeg
    {
      OFFSET 43.7702 0 0
      CHANNELS 3 Zrotation Xrotation Yrotation
      JOINT LeftFoot
      {
        OFFSET 40.6238 0 0
        CHANNELS 3 Zrotation Xrotation Yrotation
        JOINT LeftToeBase
        {
          OFFSET 12.7242 0 0
          CHANNELS 3 Zrotation Xrotation Yrotation
          End Site
          {
            OFFSET 0 0 0
          }
        }
      }
    }
  }
  JOINT RightUpLeg
  {
    OFFSET -8.2249 1.95398 -2.59336
    CHANNELS 3 Zrotation Xrotation Yrotation
    JOINT RightLeg
    {
      OFFSET 43.5653 0 0
      CHANNELS 3 Zrotation Xrotation Yrotation
      JOINT RightFoot
      {
        OFFSET 40.6238 0 0
        CHANNELS 3 Zrotation Xrotation Yrotation
        JOINT RightToeBase
        {
          OFFSET 12.7242 0 0
          CHANNELS 3 Zrotation Xrotation Yrotation
          End Site
          {
            OFFSET 0 0 0
          }
        }
      }
    }
  }
  JOINT Spine
  {
    OFFSET 0.165834 0.87714 6.61349
    CHANNELS 3 Zrotation Xrotation Yrotation
    JOINT Spine1
    {
      OFFSET 7.38963 1.71661e-005 0
      CHANNELS 3 Zrotation Xrotation Yrotation
      JOINT Spine2
      {
        OFFSET 11.9445 1.14441e-005 0
        CHANNELS 3 Zrotation Xrotation Yrotation
        JOINT Spine3
        {
          OFFSET 14.7254 4.19617e-005 0
          CHANNELS 3 Zrotation Xrotation Yrotation
          JOINT Spine4
          {
            OFFSET 10.9679 0 0
            CHANNELS 3 Zrotation Xrotation Yrotation
            JOINT RightShoulder
            {
              OFFSET 2.46616 -1.6653 3.69651
              CHANNELS 3 Zrotation Xrotation Yrotation
              JOINT RightArm
              {
                OFFSET 13.0012 0 0
                CHANNELS 3 Zrotation Xrotation Yrotation
                JOINT RightForeArm
                {
                  OFFSET 28.7848 1.62311e-005 0
                  CHANNELS 3 Zrotation Xrotation Yrotation
                  JOINT RightHand
                  {
                    OFFSET 26.5688 1.62095e-005 0
                    CHANNELS 3 Zrotation Xrotation Yrotation
                    End Site
                    {
                      OFFSET 0 0 0
                    }
                  }
                }
              }
            }
            JOINT LeftShoulder
            {
              OFFSET 2.38034 -1.29275 -3.7523
              CHANNELS 3 Zrotation Xrotation Yrotation
              JOINT LeftArm
              {
                OFFSET 16.3182 6.07031e-005 0
                CHANNELS 3 Zrotation Xrotation Yrotation
                JOINT LeftForeArm
                {
                  OFFSET 27.0901 0 0
                  CHANNELS 3 Zrotation Xrotation Yrotation
                  JOINT LeftHand
                  {
                    OFFSET 24.5451 1.51738e-005 0
                    CHANNELS 3 Zrotation Xrotation Yrotation
                    End Site
                    {
                      OFFSET 0 0 0
                    }
                  }
                }
              }
            }
            JOINT Neck
            {
              OFFSET 5.0226 -0.0266342 0
              CHANNELS 3 Zrotation Xrotation Yrotation
              JOINT Head
              {
                OFFSET 6.69364 2.86102e-005 0
                CHANNELS 3 Zrotation Xrotation Yrotation
                End Site
                {
                  OFFSET 0 0 0
                }
              }
            }
          }
        }
      }
    }
  }
}
MOTION
Frames:	7
Frame Time:	0.0416667
189.71 34.4782 -201.8 -128.101 -52.5217 -119.998 -111.731 66.9744 36.2154 -157.921 7.92357 4.33907 65.9018 10.1758 20.2516 66.2989 19.125 11.1888 155.911 77.6672 86.244 -157.011 -11.0221 -1.78436 70.7349 -13.0061 0.0810582 50.2431 -30.6978 -5.34121 0.642213 12.161 -90.8966 2.55543 0.932307 -1.73713 -9.11639 0.854973 -1.77647 -31.6478 1.41124 -1.37671 -11.6351 1.41124 -1.37671 93.2908 -42.4094 -97.1851 -15.1831 -45.4791 -57.7522 -82.0418 3.55943 -77.2481 20.109 10.721 49.3503 -87.5802 -40.685 80.5609 -31.4794 11.5668 -59.4124 76.8789 45.4578 -86.7472 -21.8229 2.01536 -16.6029 14.2608 2.9464 -5.45146 12.579 6.28063 15.5283 
189.832 34.6971 -201.734 -130.231 -52.8251 -122.556 -112.631 65.1881 36.1311 -157.005 5.73095 4.49976 65.2976 9.61667 19.9408 67.6127 19.4128 10.0176 162.89 76.2948 77.9745 -156.881 -11.654 -1.70714 71.0584 -13.4764 -0.0375751 50.5988 -30.7314 -4.43776 0.50748 12.2948 -90.9205 2.28557 0.655879 -1.78404 -9.38648 0.576733 -1.81117 -31.9155 1.16167 -1.50454 -11.9029 1.16168 -1.50454 93.4665 -41.9423 -96.9817 -13.4119 -43.9338 -56.7386 -81.2044 1.77716 -78.6926 18.1243 9.87299 50.2262 -88.0404 -41.6719 80.0068 -31.1989 11.3595 -59.6233 78.0761 45.5044 -87.5892 -21.8096 2.4026 -18.8594 14.6175 2.11617 -5.94277 10.8353 5.49373 16.3602 
189.726 34.5405 -201.577 -128.975 -53.2262 -122.271 -109.064 63.7618 32.5749 -156.646 6.18432 4.73316 64.0535 8.60063 22.7417 69.5201 20.4771 10.0957 166.872 77.5629 74.015 -157.155 -12.1038 -1.62811 70.4534 -12.9912 -0.350254 51.1905 -31.6718 -4.68964 0.411428 12.1652 -90.7559 2.5445 0.526486 -1.46852 -9.1272 0.461361 -1.49027 -31.6581 0.943468 -1.24245 -11.6455 0.94347 -1.24245 92.7271 -42.7381 -98.0697 -14.4031 -44.7962 -56.8044 -76.4717 3.58644 -78.4644 12.9037 7.45098 52.5285 -87.8874 -41.0038 80.1154 -31.5606 11.0342 -58.7508 78.0055 45.1422 -87.5631 -22.9831 2.50718 -18.5753 12.8658 2.1472 -7.85038 11.9793 6.24622 17.6832 
189.658 34.6229 -201.492 -127.932 -53.3012 -121.301 -108.895 63.9175 32.6744 -156.621 6.40858 4.75716 64.5923 8.96217 21.8094 69.0754 20.9306 11.9371 163.269 77.562 77.9761 -157.328 -12.0751 -1.59867 71.6709 -14.77 -0.715753 48.8967 -29.8966 -7.54517 0.4825 12.1716 -90.8169 2.53211 0.644612 -1.58516 -9.13966 0.57424 -1.612 -31.6703 1.09118 -1.31822 -11.6577 1.09119 -1.31821 93.4815 -42.1218 -96.9197 -16.5234 -44.839 -57.8144 -68.5239 7.82665 -79.7681 3.09682 2.19369 56.632 -87.9805 -41.2886 80.0227 -31.2615 11.2438 -59.3954 79.1769 45.4045 -88.2651 -21.4901 2.42662 -19.2353 15.5169 2.37858 -5.24532 9.89284 5.36287 15.4681 
189.712 34.6376 -201.459 -127.373 -53.6092 -120.609 -108.076 64.2622 31.6349 -156.608 6.47456 4.74951 64.3851 8.77887 21.9526 69.1556 21.0471 12.126 161.696 78.1225 79.299 -157.143 -12.5101 -1.63379 70.8454 -14.3413 -1.28479 49.4016 -30.2891 -6.8796 0.462326 12.1704 -90.8598 2.53407 0.587446 -1.66969 -9.13786 0.513407 -1.69394 -31.6675 1.06206 -1.41604 -11.6548 1.06206 -1.41603 93.3452 -41.6761 -97.2433 -12.1978 -44.5852 -55.6967 -62.7729 5.41794 -79.2212 -10.8097 -5.7639 54.2576 -88.007 -41.6792 80.0638 -30.7749 11.0333 -59.5969 77.7848 45.0276 -87.5592 -22.1668 2.49592 -19.1057 13.7936 2.29901 -5.32948 12.3799 5.62761 15.8647 
189.625 34.6501 -201.37 -127.152 -53.7826 -120.404 -108.031 64.3826 31.5829 -156.621 6.35996 4.72031 64.4004 8.8518 22.1383 69.4563 21.0756 11.7589 161.737 77.8904 79.2822 -157.244 -12.3046 -1.61018 71.5684 -14.6324 -0.766726 49.0294 -29.9591 -7.2866 0.482829 12.1652 -90.8819 2.54475 0.619743 -1.71265 -9.12722 0.543778 -1.73827 -31.6566 1.10576 -1.44731 -11.644 1.10577 -1.4473 93.5385 -41.7729 -96.8928 -8.55645 -43.5199 -53.5016 -48.3235 10.3449 -82.4762 -30.3174 -15.3161 48.5744 -88.0202 -41.3774 79.9761 -30.9375 11.2062 -59.7675 75.2132 44.7605 -85.9823 -23.7893 2.44334 -17.7892 13.5563 2.11309 -6.31864 12.443 5.88865 17.2158 
189.617 34.6324 -201.313 -126.958 -53.7268 -120.058 -108.058 64.651 31.7441 -156.784 6.68803 4.68986 64.4284 8.72605 21.9099 69.3616 21.1861 12.1861 161.827 77.6513 79.3237 -157.361 -12.8543 -1.57421 71.8852 -14.9855 -0.760681 48.4906 -29.4846 -7.90562 0.498615 12.1531 -90.8774 2.56924 0.652838 -1.70364 -9.10271 0.577224 -1.73072 -31.6324 1.13462 -1.42876 -11.6198 1.13461 -1.42878 93.4367 -41.9253 -97.036 -13.9242 -44.5502 -56.2171 -41.1038 13.2613 -84.3601 -44.8482 -22.3266 46.55 -87.932 -41.2041 80.0847 -30.8855 11.3194 -59.5245 75.6228 44.6713 -86.3377 -23.9379 2.30256 -16.8847 14.0412 2.0707 -7.39431 11.4825 6.15135 18.4363 
